HIERARCHY
ROOT root
{
	OFFSET	0	13.1	24.9
	CHANNELS 6  Xposition Yposition Zposition Xrotation Yrotation Zrotation
	JOINT spine_1
	{
		OFFSET	0	9.99999	0
		CHANNELS 3  Xrotation Yrotation Zrotation
		JOINT spine_2
		{
			OFFSET	0	112	-10
			CHANNELS 3  Xrotation Yrotation Zrotation
			JOINT spine_3
			{
				OFFSET	0	206.5	19.3
				CHANNELS 3  Xrotation Yrotation Zrotation
				JOINT spine_4
				{
					OFFSET	0	110.4	14.6
					CHANNELS 3  Xrotation Yrotation Zrotation
					JOINT neck_1
					{
						OFFSET	0	71.8	-50.3
						CHANNELS 3  Xrotation Yrotation Zrotation
						JOINT neck_2
						{
							OFFSET	0	86.2	-25.8
							CHANNELS 3  Xrotation Yrotation Zrotation
							JOINT head_ee
							{
								OFFSET	0	179.8	-8.7
								CHANNELS 3  Xrotation Yrotation Zrotation
								End Site
								{
									OFFSET	1	0	0
								}
							}
						}
					}
					JOINT left_clavicle
					{
						OFFSET	-43.2	22.4	-70.8
						CHANNELS 3  Xrotation Yrotation Zrotation
						JOINT left_shoulder
						{
							OFFSET	-93.9	-5.79999	48.7
							CHANNELS 3  Xrotation Yrotation Zrotation
							JOINT left_elbow
							{
								OFFSET	-291.4	-30.8	15.2
								CHANNELS 3  Xrotation Yrotation Zrotation
								JOINT left_lowarm_twist
								{
									OFFSET	-110.7	-3.89999	13.6
									CHANNELS 3  Xrotation Yrotation Zrotation
									JOINT left_hand
									{
										OFFSET	-110.7	-3.89999	13.6
										CHANNELS 3  Xrotation Yrotation Zrotation
										JOINT left_ee
										{
											OFFSET	-80.8	-5.10001	12.1
											CHANNELS 3  Xrotation Yrotation Zrotation
											End Site
											{
												OFFSET	1	0	0
											}
										}
									}
								}
							}
						}
					}
					JOINT right_clavicle
					{
						OFFSET	43.2	22.4	-70.8
						CHANNELS 3  Xrotation Yrotation Zrotation
						JOINT right_shoulder
						{
							OFFSET	93.9	-5.79999	48.7
							CHANNELS 3  Xrotation Yrotation Zrotation
							JOINT right_elbow
							{
								OFFSET	291.4	-30.8	15.2
								CHANNELS 3  Xrotation Yrotation Zrotation
								JOINT right_lowarm_twist
								{
									OFFSET	110.7	-3.89999	13.6
									CHANNELS 3  Xrotation Yrotation Zrotation
									JOINT right_hand
									{
										OFFSET	110.7	-3.89999	13.6
										CHANNELS 3  Xrotation Yrotation Zrotation
										JOINT right_ee
										{
											OFFSET	80.8	-5.10001	12.1
											CHANNELS 3  Xrotation Yrotation Zrotation
											End Site
											{
												OFFSET	1	0	0
											}
										}
									}
								}
							}
						}
					}
				}
			}
		}
	}
	JOINT left_hip
	{
		OFFSET	-82.8	-127.5	0.300001
		CHANNELS 3  Xrotation Yrotation Zrotation
		JOINT left_knee
		{
			OFFSET	-28.2	-396.7	2.2
			CHANNELS 3  Xrotation Yrotation Zrotation
			JOINT left_ankle
			{
				OFFSET	-11.7	-411.3	35.4
				CHANNELS 3  Xrotation Yrotation Zrotation
				JOINT left_toes
				{
					OFFSET	0	-60	-88.6
					CHANNELS 3  Xrotation Yrotation Zrotation
					JOINT left_foot_ee
					{
						OFFSET	-22.5	-16.5	-42.2
						CHANNELS 3  Xrotation Yrotation Zrotation
						End Site
						{
							OFFSET	1	0	0
						}
					}
				}
			}
		}
	}
	JOINT right_hip
	{
		OFFSET	82.8	-127.5	0.300001
		CHANNELS 3  Xrotation Yrotation Zrotation
		JOINT right_knee
		{
			OFFSET	28.2	-396.7	2.2
			CHANNELS 3  Xrotation Yrotation Zrotation
			JOINT right_ankle
			{
				OFFSET	11.7	-411.3	35.4
				CHANNELS 3  Xrotation Yrotation Zrotation
				JOINT right_toes
				{
					OFFSET	0	-60	-88.6
					CHANNELS 3  Xrotation Yrotation Zrotation
					JOINT right_foot_ee
					{
						OFFSET	22.5	-16.5	-42.2
						CHANNELS 3  Xrotation Yrotation Zrotation
						End Site
						{
							OFFSET	1	0	0
						}
					}
				}
			}
		}
	}
}
MOTION
Frames: 13
Frame Time: 0.02
2555.60606658 731.975 -1557.52823254 -132.502386677 83.7508534121 122.710028866 1.67821 0.758366 5.65403 1.69589 0.397645 5.69067 1.73628 -0.637228 5.66892 1.69156 0.264568 5.69838 -7.16627 6.43092 -11.8491 -6.692 20.4632 -10.641 -0.0 0.0 -0.0 -8.14369 12.9136 -12.2607 -22.0767 -55.9881 53.3189 0.369213 -10.3649 0.0334871 -76.5674 -7.38499 5.31278 -0.202131 -15.5607 -7.98997 -0.0 0.0 -0.0 10.9382 0.132464 -21.6162 0.339695 1.38093 -75.469 1.99408 44.6436 -0.818785 33.6504 0.060822 4.23702 3.15256 -13.4342 -26.3155 0.0 0.0 0.0 23.7578 9.89158 -2.13706 -46.7939 -0.954551 6.92183 33.2219 7.96732 -4.22563 -21.9856 0.0 0.0 -0.0 0.0 -0.0 16.5972 16.7715 0.321541 -4.87426 -0.169776 -0.728563 33.9476 -24.4524 4.53425 -29.6437 0.0 0.0 0.0 0.0 0.0 
2538.33923369 730.14 -1542.64101851 -144.707617857 81.6672468616 135.691127117 1.92214 0.979063 5.66771 1.93979 0.617033 5.71829 2.00138 -0.398748 5.73758 1.95584 0.510875 5.72872 -5.71799 5.76801 -11.8579 -5.17244 19.4156 -11.081 -0.0 0.0 -0.0 -8.34587 13.6048 -12.3867 -24.6601 -55.5217 52.6699 0.311526 -8.77291 0.0238966 -76.9571 -7.43469 5.31036 -0.168887 -16.9017 -8.33323 -0.0 0.0 -0.0 10.6631 2.05812 -21.1397 1.39815 1.72293 -75.6813 2.34672 49.2901 -1.07676 37.7102 0.23555 4.72563 3.53754 -15.4137 -29.6492 0.0 0.0 0.0 24.8477 6.49386 -1.67074 -42.361 -0.623767 6.3256 29.7531 8.18053 -3.86399 -24.5747 0.0 0.0 -0.0 0.0 -0.0 14.5018 19.3213 0.0315222 -1.15178 -0.0457089 -0.170843 34.01 -22.7707 4.49839 -30.1738 0.0 0.0 0.0 0.0 0.0 
2517.09063848 735.126 -1527.23885365 -155.48727118 78.2731054304 147.375006326 2.12262 1.03709 5.52202 2.13931 0.684165 5.57659 2.20508 -0.287312 5.61094 2.16168 0.601023 5.58613 -6.67256 4.9313 -13.2744 -6.06855 18.7951 -12.4988 -0.0 0.0 -0.0 -8.5057 11.6591 -13.3262 -27.3268 -54.5519 54.2409 0.360334 -10.1209 0.0319082 -79.4267 -7.74906 5.2871 0.590794 -21.2623 -5.11924 -0.0 0.0 -0.0 11.0137 2.54236 -21.9088 1.98151 2.62647 -73.3836 2.85486 54.7252 -1.47768 39.7599 0.336833 4.96738 4.4516 -13.484 -36.0842 0.0 0.0 0.0 25.1263 15.5949 -4.87855 -31.1966 -0.0036231 4.72888 24.7037 5.70281 -3.29678 -27.9576 0.0 0.0 -0.0 0.0 -0.0 12.9066 17.5176 -1.18017 -1.14883 -0.0455956 -0.170404 37.4469 -21.1706 4.81231 -31.4727 0.0 0.0 0.0 0.0 0.0 
2499.68138088 744.298 -1514.3283417 -159.507625459 75.8551466809 153.240923334 2.30229 0.674601 5.35016 2.31814 0.333294 5.38212 2.34751 -0.587493 5.3604 2.30753 0.265188 5.3859 -6.90437 3.00559 -13.4877 -6.31782 15.3622 -13.0286 -0.0 0.0 -0.0 -8.55386 11.1133 -13.5965 -29.0297 -53.0868 56.9301 0.424822 -11.8844 0.0442175 -81.0017 -7.94878 5.26513 1.30625 -25.7061 -2.40782 -0.0 0.0 -0.0 11.2328 2.98916 -22.4001 1.1723 3.96746 -72.8135 3.07088 56.6686 -1.65615 40.0627 0.352526 5.00278 5.17648 -13.0514 -42.0404 0.0 0.0 0.0 21.231 12.2319 -4.09299 -17.3866 0.317594 2.63901 16.5511 5.94973 -2.29509 -31.4972 0.0 0.0 -0.0 0.0 -0.0 12.7762 16.7307 -3.60713 -1.69527 -0.0660808 -0.251763 38.7487 -20.007 4.91135 -32.9711 0.0 0.0 0.0 0.0 0.0 
2452.71265783 753.523 -1534.42474118 -114.031363163 82.6053065824 109.010026321 2.88853 0.76661 3.97533 2.89717 0.512305 4.01597 2.93081 -0.13629 4.04617 2.90833 0.503911 4.01703 -9.50206 7.13774 -7.04256 -9.4269 18.2091 -5.18842 -0.0 0.0 -0.0 -8.31965 6.76238 -14.5524 -13.9336 -62.646 67.8393 0.253149 -7.14789 0.0158112 -84.4982 -8.38915 5.19663 2.88022 -28.3119 6.41528 -0.0 0.0 -0.0 10.4978 -7.22849 -20.1062 -8.60725 0.109501 -69.0318 1.54675 37.4573 -0.524438 27.9879 -0.124149 3.53773 6.52424 2.19775 -48.5695 0.0 0.0 0.0 13.1662 5.10346 -3.78473 -9.2836 0.269487 1.3977 18.0828 -22.9269 -2.88023 -24.338 0.0 0.0 -0.0 0.0 -0.0 13.0327 9.6327 -4.26 -5.17158 -0.178117 -0.77343 39.9284 -23.2097 5.10591 -40.2502 0.0 0.0 0.0 0.0 0.0 
2452.70497511 753.523 -1534.38061706 -114.082432808 82.6023471268 109.061524442 2.88853 0.76661 3.97533 2.89717 0.512305 4.01597 2.93081 -0.13629 4.04617 2.90833 0.503911 4.01703 -9.50206 7.13774 -7.04256 -9.4269 18.2091 -5.18842 -0.0 0.0 -0.0 -8.31965 6.76238 -14.5524 -13.9336 -62.646 67.8393 0.253149 -7.14789 0.0158112 -84.4982 -8.38915 5.19663 2.88022 -28.3119 6.41528 -0.0 0.0 -0.0 10.4978 -7.22849 -20.1062 -8.60725 0.109501 -69.0318 1.54675 37.4573 -0.524438 27.9879 -0.124149 3.53773 6.52424 2.19775 -48.5695 0.0 0.0 0.0 13.1662 5.10346 -3.78473 -9.2836 0.269487 1.3977 18.0828 -22.9269 -2.88023 -24.338 0.0 0.0 -0.0 0.0 -0.0 13.0327 9.6327 -4.26 -5.17158 -0.178117 -0.77343 39.9284 -23.2097 5.10591 -40.2502 0.0 0.0 0.0 0.0 0.0 
2452.49846164 753.523 -1533.18189952 -115.453632044 82.5197382216 110.444361043 2.88853 0.76661 3.97533 2.89717 0.512305 4.01597 2.93081 -0.13629 4.04617 2.90833 0.503911 4.01703 -9.50206 7.13774 -7.04256 -9.4269 18.2091 -5.18842 -0.0 0.0 -0.0 -8.31965 6.76238 -14.5524 -13.9336 -62.646 67.8393 0.253149 -7.14789 0.0158112 -84.4982 -8.38915 5.19663 2.88022 -28.3119 6.41528 -0.0 0.0 -0.0 10.4978 -7.22849 -20.1062 -8.60725 0.109501 -69.0318 1.54675 37.4573 -0.524438 27.9879 -0.124149 3.53773 6.52424 2.19775 -48.5695 0.0 0.0 0.0 13.1662 5.10346 -3.78473 -9.2836 0.269487 1.3977 18.0828 -22.9269 -2.88023 -24.338 0.0 0.0 -0.0 0.0 -0.0 13.0327 9.6327 -4.26 -5.17158 -0.178117 -0.77343 39.9284 -23.2097 5.10591 -40.2502 0.0 0.0 0.0 0.0 0.0 
2451.86148654 753.523 -1529.31701523 -119.658166679 82.2258092134 114.686378941 2.88853 0.76661 3.97533 2.89717 0.512305 4.01597 2.93081 -0.13629 4.04617 2.90833 0.503911 4.01703 -9.50206 7.13774 -7.04256 -9.4269 18.2091 -5.18842 -0.0 0.0 -0.0 -8.31965 6.76238 -14.5524 -13.9336 -62.646 67.8393 0.253149 -7.14789 0.0158112 -84.4982 -8.38915 5.19663 2.88022 -28.3119 6.41528 -0.0 0.0 -0.0 10.4978 -7.22849 -20.1062 -8.60725 0.109501 -69.0318 1.54675 37.4573 -0.524438 27.9879 -0.124149 3.53773 6.52424 2.19775 -48.5695 0.0 0.0 0.0 13.1662 5.10346 -3.78473 -9.2836 0.269487 1.3977 18.0828 -22.9269 -2.88023 -24.338 0.0 0.0 -0.0 0.0 -0.0 13.0327 9.6327 -4.26 -5.17158 -0.178117 -0.77343 39.9284 -23.2097 5.10591 -40.2502 0.0 0.0 0.0 0.0 0.0 
2451.28897009 753.523 -1525.59119973 -123.396018866 81.9061296567 118.460316285 2.88853 0.76661 3.97533 2.89717 0.512305 4.01597 2.93081 -0.13629 4.04617 2.90833 0.503911 4.01703 -9.50206 7.13774 -7.04256 -9.4269 18.2091 -5.18842 -0.0 0.0 -0.0 -8.31965 6.76238 -14.5524 -13.9336 -62.646 67.8393 0.253149 -7.14789 0.0158112 -84.4982 -8.38915 5.19663 2.88022 -28.3119 6.41528 -0.0 0.0 -0.0 10.4978 -7.22849 -20.1062 -8.60725 0.109501 -69.0318 1.54675 37.4573 -0.524438 27.9879 -0.124149 3.53773 6.52424 2.19775 -48.5695 0.0 0.0 0.0 13.1662 5.10346 -3.78473 -9.2836 0.269487 1.3977 18.0828 -22.9269 -2.88023 -24.338 0.0 0.0 -0.0 0.0 -0.0 13.0327 9.6327 -4.26 -5.17158 -0.178117 -0.77343 39.9284 -23.2097 5.10591 -40.2502 0.0 0.0 0.0 0.0 0.0 
2451.60621468 753.523 -1527.68832614 -121.330076967 82.0901909486 116.374068933 2.88853 0.76661 3.97533 2.89717 0.512305 4.01597 2.93081 -0.13629 4.04617 2.90833 0.503911 4.01703 -9.50206 7.13774 -7.04256 -9.4269 18.2091 -5.18842 -0.0 0.0 -0.0 -8.31965 6.76238 -14.5524 -13.9336 -62.646 67.8393 0.253149 -7.14789 0.0158112 -84.4982 -8.38915 5.19663 2.88022 -28.3119 6.41528 -0.0 0.0 -0.0 10.4978 -7.22849 -20.1062 -8.60725 0.109501 -69.0318 1.54675 37.4573 -0.524438 27.9879 -0.124149 3.53773 6.52424 2.19775 -48.5695 0.0 0.0 0.0 13.1662 5.10346 -3.78473 -9.2836 0.269487 1.3977 18.0828 -22.9269 -2.88023 -24.338 0.0 0.0 -0.0 0.0 -0.0 13.0327 9.6327 -4.26 -5.17158 -0.178117 -0.77343 39.9284 -23.2097 5.10591 -40.2502 0.0 0.0 0.0 0.0 0.0 
2451.40984458 753.523 -1526.40031365 -122.610451189 81.9783615897 117.666915991 2.88853 0.76661 3.97533 2.89717 0.512305 4.01597 2.93081 -0.13629 4.04617 2.90833 0.503911 4.01703 -9.50206 7.13774 -7.04256 -9.4269 18.2091 -5.18842 -0.0 0.0 -0.0 -8.31965 6.76238 -14.5524 -13.9336 -62.646 67.8393 0.253149 -7.14789 0.0158112 -84.4982 -8.38915 5.19663 2.88022 -28.3119 6.41528 -0.0 0.0 -0.0 10.4978 -7.22849 -20.1062 -8.60725 0.109501 -69.0318 1.54675 37.4573 -0.524438 27.9879 -0.124149 3.53773 6.52424 2.19775 -48.5695 0.0 0.0 0.0 13.1662 5.10346 -3.78473 -9.2836 0.269487 1.3977 18.0828 -22.9269 -2.88023 -24.338 0.0 0.0 -0.0 0.0 -0.0 13.0327 9.6327 -4.26 -5.17158 -0.178117 -0.77343 39.9284 -23.2097 5.10591 -40.2502 0.0 0.0 0.0 0.0 0.0 
2450.44865041 753.523 -1519.56403153 -128.805508372 81.324257042 123.928093779 2.88853 0.76661 3.97533 2.89717 0.512305 4.01597 2.93081 -0.13629 4.04617 2.90833 0.503911 4.01703 -9.50206 7.13774 -7.04256 -9.4269 18.2091 -5.18842 -0.0 0.0 -0.0 -8.31965 6.76238 -14.5524 -13.9336 -62.646 67.8393 0.253149 -7.14789 0.0158112 -84.4982 -8.38915 5.19663 2.88022 -28.3119 6.41528 -0.0 0.0 -0.0 10.4978 -7.22849 -20.1062 -8.60725 0.109501 -69.0318 1.54675 37.4573 -0.524438 27.9879 -0.124149 3.53773 6.52424 2.19775 -48.5695 0.0 0.0 0.0 13.1662 5.10346 -3.78473 -9.2836 0.269487 1.3977 18.0828 -22.9269 -2.88023 -24.338 0.0 0.0 -0.0 0.0 -0.0 13.0327 9.6327 -4.26 -5.17158 -0.178117 -0.77343 39.9284 -23.2097 5.10591 -40.2502 0.0 0.0 0.0 0.0 0.0 
2449.98627123 753.523 -1515.87415327 -131.752417423 80.9344156085 126.910644398 2.88853 0.76661 3.97533 2.89717 0.512305 4.01597 2.93081 -0.13629 4.04617 2.90833 0.503911 4.01703 -9.50206 7.13774 -7.04256 -9.4269 18.2091 -5.18842 -0.0 0.0 -0.0 -8.31965 6.76238 -14.5524 -13.9336 -62.646 67.8393 0.253149 -7.14789 0.0158112 -84.4982 -8.38915 5.19663 2.88022 -28.3119 6.41528 -0.0 0.0 -0.0 10.4978 -7.22849 -20.1062 -8.60725 0.109501 -69.0318 1.54675 37.4573 -0.524438 27.9879 -0.124149 3.53773 6.52424 2.19775 -48.5695 0.0 0.0 0.0 13.1662 5.10346 -3.78473 -9.2836 0.269487 1.3977 18.0828 -22.9269 -2.88023 -24.338 0.0 0.0 -0.0 0.0 -0.0 13.0327 9.6327 -4.26 -5.17158 -0.178117 -0.77343 39.9284 -23.2097 5.10591 -40.2502 0.0 0.0 0.0 0.0 0.0 
